<?xml version="1.0" encoding="utf-8"?>
<!-- Generator: Adobe Illustrator 24.0.2, SVG Export Plug-In . SVG Version: 6.00 Build 0)  -->
<svg version="1.1" id="_x35_0c1f3d6-3596-4f78-a680-84ef08523434"
	 xmlns="http://www.w3.org/2000/svg" xmlns:xlink="http://www.w3.org/1999/xlink" x="0px" y="0px" viewBox="0 0 1086.8 789.3"
	 style="enable-background:new 0 0 1086.8 789.3;" xml:space="preserve">
<style type="text/css">
	.st0{fill:url(#SVGID_1_);}
	.st1{opacity:0.2;fill:#6C757D;enable-background:new    ;}
	.st2{fill:#535461;}
	.st3{fill:#F1F1F4;}
	.st4{fill:#6C757D;}
	.st5{opacity:0.7;fill:#6C757D;enable-background:new    ;}
	.st6{opacity:0.4;fill:#6C757D;enable-background:new    ;}
	.st7{opacity:0.1;stroke:#4C4981;stroke-width:0.5812;stroke-miterlimit:10;enable-background:new    ;}
	.st8{fill:#FFFFFF;}
	.st9{opacity:0.5;}
	.st10{fill:none;stroke:#535461;stroke-width:2;stroke-miterlimit:10;}
	.st11{opacity:0.1;fill:#6C757D;enable-background:new    ;}
	.st12{opacity:0.2;fill:#F5F5F5;enable-background:new    ;}
	.st13{fill:#E6E8EC;}
	.st14{opacity:0.1;enable-background:new    ;}
	.st15{opacity:0.3;fill:#FFFFFF;enable-background:new    ;}
	.st16{fill:#17A2B8;}
	.st17{fill:#2F2E41;}
	.st18{fill:#FFB8B8;}
	.st19{fill:#3F3D56;}
	.st20{opacity:0.3;enable-background:new    ;}
</style>
<linearGradient id="SVGID_1_" gradientUnits="userSpaceOnUse" x1="671.3159" y1="143.0351" x2="671.3159" y2="627.3951" gradientTransform="matrix(1 0 0 -1 -56.59 736.88)">
	<stop  offset="0" style="stop-color:#808080;stop-opacity:0.25"/>
	<stop  offset="0.54" style="stop-color:#808080;stop-opacity:0.12"/>
	<stop  offset="1" style="stop-color:#808080;stop-opacity:0.1"/>
</linearGradient>
<path class="st0" d="M1056.1,538.1H971c2-3.9,3-8.3,3-12.7V138c0-15.7-12.8-28.5-28.5-28.5H286.9c-15.7,0-28.5,12.8-28.5,28.5v387.5
	c0,4.4,1,8.7,3,12.7h-88.1c-4.2,0-7.5,3.4-7.5,7.5l0,0v6.1c0,23.3,18.9,42.1,42.1,42.1h0h813.7c23.3,0,42.1-18.9,42.1-42.1
	c0,0,0,0,0,0v-6.1C1063.7,541.5,1060.3,538.1,1056.1,538.1C1056.2,538.1,1056.1,538.1,1056.1,538.1z M531.8,562.2l-7.3-8.3h181.1
	l-8.1,8.3H531.8z"/>
<path class="st1" d="M132.9,47.9c-8.1-0.2-16.3,0-23.9,2.3c-20.6,6.3-30.3,27-27.1,44.9s16.2,33.4,29.7,47.7s28.2,28.3,35.6,45.3
	c3.7,8.5,5.4,18,1.7,26.5c-5.8,13.1-23.3,20.4-40.1,21.9S75.2,235,58.3,234c-7.1-0.4-14.3-0.5-21,1.5c-7.3,2.1-13.4,6.3-19,10.8
	c-21.9,17.4-39.4,41.1-36.6,65.9c3.2,28.2,31.7,50.5,63,62.5c10.4,4,21.3,7.2,30.4,12.8c24,14.9,29.4,42.9,27,67.6
	c-2.4,24.7-10.5,49.5-6,73.9c5.3,28.5,28.9,54.2,60.7,66.3c28.4,10.7,63.8,10,89-5.1c12.3-7.4,21.5-17.6,29.6-28.2
	c12-15.7,21.9-32.8,29.5-51c3.5-8.5,6.8-17.6,15-23.5c5-3.6,11.5-5.7,17.9-7.2c19.3-4.8,39.7-6.1,59.2-10.3s39.1-12.1,49.7-26.3
	c15-20,8-45.6,8.1-69.1c0.1-53.7,39.1-101.7,53.5-154c4.7-17.1,6.5-36-4-51.3c-7.1-10.4-19.2-17.8-31.8-23.6
	c-27.8-12.7-59.4-18.3-90.5-23.8c-43.2-7.6-95.7-8.6-129.2-33.4C220.7,64.8,176.7,47.9,132.9,47.9z"/>
<path class="st2" d="M288.3,113.9h652.9c12.8,0,23.3,10.4,23.3,23.3V525c0,12.8-10.4,23.3-23.3,23.3H288.3
	c-12.8,0-23.3-10.4-23.3-23.3V137.1C265,124.3,275.4,113.9,288.3,113.9z"/>
<rect x="277" y="186" class="st3" width="668.5" height="354.9"/>
<path class="st1" d="M418.5,209.6v12h-10.9C411,217.5,414.7,213.4,418.5,209.6z"/>
<rect x="423.8" y="206.5" class="st1" width="14.6" height="15.1"/>
<rect x="443.8" y="206.5" class="st1" width="14.6" height="15.1"/>
<rect x="463.7" y="206.5" class="st1" width="14.6" height="15.1"/>
<rect x="483.6" y="206.5" class="st1" width="14.6" height="15.1"/>
<rect x="503.5" y="206.5" class="st1" width="14.6" height="15.1"/>
<rect x="523.5" y="206.5" class="st4" width="14.6" height="15.1"/>
<rect x="543.4" y="206.5" class="st1" width="14.6" height="15.1"/>
<rect x="563.3" y="206.5" class="st1" width="14.6" height="15.1"/>
<rect x="583.2" y="206.5" class="st1" width="14.6" height="15.1"/>
<rect x="603.2" y="206.5" class="st4" width="14.6" height="15.1"/>
<rect x="623.1" y="206.5" class="st1" width="14.6" height="15.1"/>
<rect x="643" y="206.5" class="st1" width="14.6" height="15.1"/>
<rect x="662.9" y="206.5" class="st1" width="14.6" height="15.1"/>
<rect x="682.9" y="206.5" class="st1" width="14.6" height="15.1"/>
<rect x="702.8" y="206.5" class="st1" width="14.6" height="15.1"/>
<rect x="722.7" y="206.5" class="st1" width="14.6" height="15.1"/>
<rect x="742.6" y="206.5" class="st4" width="14.6" height="15.1"/>
<rect x="762.6" y="206.5" class="st4" width="14.6" height="15.1"/>
<rect x="782.5" y="206.5" class="st1" width="14.6" height="15.1"/>
<rect x="802.4" y="206.5" class="st1" width="14.6" height="15.1"/>
<rect x="822.3" y="206.5" class="st4" width="14.6" height="15.1"/>
<rect x="842.3" y="206.5" class="st4" width="14.6" height="15.1"/>
<path class="st4" d="M398.6,233.5v7.2h-4.7C395.4,238.2,396.9,235.9,398.6,233.5z"/>
<rect x="403.9" y="225.6" class="st1" width="14.6" height="15.1"/>
<rect x="423.8" y="225.6" class="st4" width="14.6" height="15.1"/>
<rect x="443.8" y="225.6" class="st1" width="14.6" height="15.1"/>
<rect x="463.7" y="225.6" class="st5" width="14.6" height="15.1"/>
<rect x="483.6" y="225.6" class="st1" width="14.6" height="15.1"/>
<rect x="503.5" y="225.6" class="st6" width="14.6" height="15.1"/>
<rect x="523.5" y="225.6" class="st4" width="14.6" height="15.1"/>
<rect x="543.4" y="225.6" class="st6" width="14.6" height="15.1"/>
<rect x="563.3" y="225.6" class="st1" width="14.6" height="15.1"/>
<rect x="583.2" y="225.6" class="st6" width="14.6" height="15.1"/>
<rect x="603.2" y="225.6" class="st4" width="14.6" height="15.1"/>
<rect x="623.1" y="225.6" class="st6" width="14.6" height="15.1"/>
<rect x="643" y="225.6" class="st6" width="14.6" height="15.1"/>
<rect x="662.9" y="225.6" class="st1" width="14.6" height="15.1"/>
<rect x="682.9" y="225.6" class="st6" width="14.6" height="15.1"/>
<rect x="702.8" y="225.6" class="st6" width="14.6" height="15.1"/>
<rect x="722.7" y="225.6" class="st1" width="14.6" height="15.1"/>
<rect x="742.6" y="225.6" class="st1" width="14.6" height="15.1"/>
<rect x="762.6" y="225.6" class="st6" width="14.6" height="15.1"/>
<rect x="782.5" y="225.6" class="st1" width="14.6" height="15.1"/>
<rect x="802.4" y="225.6" class="st4" width="14.6" height="15.1"/>
<rect x="822.3" y="225.6" class="st4" width="14.6" height="15.1"/>
<rect x="842.3" y="225.6" class="st4" width="14.6" height="15.1"/>
<path class="st1" d="M358.7,249.2v10.5h-14.6v-5.1C348.9,252.5,353.7,250.6,358.7,249.2z"/>
<polygon class="st1" points="378.6,245.8 378.6,259.8 364.1,259.8 364.1,247.9 "/>
<rect x="384" y="244.7" class="st4" width="14.6" height="15.1"/>
<rect x="403.9" y="244.7" class="st5" width="14.6" height="15.1"/>
<rect x="423.8" y="244.7" class="st4" width="14.6" height="15.1"/>
<rect x="443.8" y="244.7" class="st5" width="14.6" height="15.1"/>
<rect x="463.7" y="244.7" class="st5" width="14.6" height="15.1"/>
<rect x="483.6" y="244.7" class="st1" width="14.6" height="15.1"/>
<rect x="503.5" y="244.7" class="st6" width="14.6" height="15.1"/>
<rect x="523.5" y="244.7" class="st6" width="14.6" height="15.1"/>
<rect x="543.4" y="244.7" class="st4" width="14.6" height="15.1"/>
<rect x="563.3" y="244.7" class="st1" width="14.6" height="15.1"/>
<rect x="583.2" y="244.7" class="st6" width="14.6" height="15.1"/>
<rect x="603.2" y="244.7" class="st4" width="14.6" height="15.1"/>
<rect x="623.1" y="244.7" class="st1" width="14.6" height="15.1"/>
<rect x="643" y="244.7" class="st6" width="14.6" height="15.1"/>
<rect x="662.9" y="244.7" class="st1" width="14.6" height="15.1"/>
<rect x="682.9" y="244.7" class="st4" width="14.6" height="15.1"/>
<rect x="702.8" y="244.7" class="st1" width="14.6" height="15.1"/>
<rect x="722.7" y="244.7" class="st5" width="14.6" height="15.1"/>
<rect x="742.6" y="244.7" class="st5" width="14.6" height="15.1"/>
<rect x="762.6" y="244.7" class="st6" width="14.6" height="15.1"/>
<rect x="782.5" y="244.7" class="st1" width="14.6" height="15.1"/>
<rect x="802.4" y="244.7" class="st4" width="14.6" height="15.1"/>
<rect x="822.3" y="244.7" class="st4" width="14.6" height="15.1"/>
<rect x="842.3" y="244.7" class="st4" width="14.6" height="15.1"/>
<rect x="344.1" y="263.8" class="st1" width="14.6" height="15.1"/>
<rect x="364.1" y="263.8" class="st1" width="14.6" height="15.1"/>
<rect x="384" y="263.8" class="st1" width="14.6" height="15.1"/>
<rect x="403.9" y="263.8" class="st1" width="14.6" height="15.1"/>
<rect x="423.8" y="263.8" class="st4" width="14.6" height="15.1"/>
<rect x="443.8" y="263.8" class="st5" width="14.6" height="15.1"/>
<rect x="463.7" y="263.8" class="st5" width="14.6" height="15.1"/>
<rect x="483.6" y="263.8" class="st1" width="14.6" height="15.1"/>
<rect x="503.5" y="263.8" class="st1" width="14.6" height="15.1"/>
<rect x="523.5" y="263.8" class="st6" width="14.6" height="15.1"/>
<rect x="543.4" y="263.8" class="st6" width="14.6" height="15.1"/>
<rect x="563.3" y="263.8" class="st4" width="14.6" height="15.1"/>
<rect x="583.2" y="263.8" class="st1" width="14.6" height="15.1"/>
<rect x="603.2" y="263.8" class="st6" width="14.6" height="15.1"/>
<rect x="623.1" y="263.8" class="st6" width="14.6" height="15.1"/>
<rect x="643" y="263.8" class="st6" width="14.6" height="15.1"/>
<rect x="662.9" y="263.8" class="st6" width="14.6" height="15.1"/>
<rect x="682.9" y="263.8" class="st1" width="14.6" height="15.1"/>
<rect x="702.8" y="263.8" class="st1" width="14.6" height="15.1"/>
<rect x="722.7" y="263.8" class="st1" width="14.6" height="15.1"/>
<rect x="742.6" y="263.8" class="st1" width="14.6" height="15.1"/>
<rect x="762.6" y="263.8" class="st5" width="14.6" height="15.1"/>
<rect x="782.5" y="263.8" class="st5" width="14.6" height="15.1"/>
<rect x="802.4" y="263.8" class="st6" width="14.6" height="15.1"/>
<rect x="822.3" y="263.8" class="st1" width="14.6" height="15.1"/>
<rect x="842.3" y="263.8" class="st4" width="14.6" height="15.1"/>
<rect x="344.1" y="282.9" class="st1" width="14.6" height="15.1"/>
<rect x="364.1" y="282.9" class="st1" width="14.6" height="15.1"/>
<rect x="384" y="282.9" class="st6" width="14.6" height="15.1"/>
<rect x="403.9" y="282.9" class="st1" width="14.6" height="15.1"/>
<rect x="423.8" y="282.9" class="st1" width="14.6" height="15.1"/>
<rect x="443.8" y="282.9" class="st5" width="14.6" height="15.1"/>
<rect x="463.7" y="282.9" class="st5" width="14.6" height="15.1"/>
<rect x="483.6" y="282.9" class="st1" width="14.6" height="15.1"/>
<rect x="503.5" y="282.9" class="st1" width="14.6" height="15.1"/>
<rect x="523.5" y="282.9" class="st6" width="14.6" height="15.1"/>
<rect x="543.4" y="282.9" class="st4" width="14.6" height="15.1"/>
<rect x="563.3" y="282.9" class="st1" width="14.6" height="15.1"/>
<rect x="583.2" y="282.9" class="st4" width="14.6" height="15.1"/>
<rect x="603.2" y="282.9" class="st4" width="14.6" height="15.1"/>
<rect x="623.1" y="282.9" class="st4" width="14.6" height="15.1"/>
<rect x="643" y="282.9" class="st1" width="14.6" height="15.1"/>
<rect x="662.9" y="282.9" class="st4" width="14.6" height="15.1"/>
<rect x="682.9" y="282.9" class="st1" width="14.6" height="15.1"/>
<rect x="702.8" y="282.9" class="st1" width="14.6" height="15.1"/>
<rect x="722.7" y="282.9" class="st1" width="14.6" height="15.1"/>
<rect x="742.6" y="282.9" class="st1" width="14.6" height="15.1"/>
<rect x="762.6" y="282.9" class="st1" width="14.6" height="15.1"/>
<rect x="782.5" y="282.9" class="st5" width="14.6" height="15.1"/>
<rect x="802.4" y="282.9" class="st1" width="14.6" height="15.1"/>
<rect x="822.3" y="282.9" class="st1" width="14.6" height="15.1"/>
<rect x="842.3" y="282.9" class="st4" width="14.6" height="15.1"/>
<rect x="344.1" y="302" class="st1" width="14.6" height="15.1"/>
<rect x="364.1" y="302" class="st1" width="14.6" height="15.1"/>
<rect x="384" y="302" class="st1" width="14.6" height="15.1"/>
<rect x="403.9" y="302" class="st6" width="14.6" height="15.1"/>
<rect x="423.8" y="302" class="st1" width="14.6" height="15.1"/>
<rect x="443.8" y="302" class="st1" width="14.6" height="15.1"/>
<rect x="463.7" y="302" class="st5" width="14.6" height="15.1"/>
<rect x="483.6" y="302" class="st1" width="14.6" height="15.1"/>
<rect x="503.5" y="302" class="st1" width="14.6" height="15.1"/>
<rect x="523.5" y="302" class="st1" width="14.6" height="15.1"/>
<rect x="543.4" y="302" class="st4" width="14.6" height="15.1"/>
<rect x="563.3" y="302" class="st1" width="14.6" height="15.1"/>
<rect x="583.2" y="302" class="st4" width="14.6" height="15.1"/>
<rect x="603.2" y="302" class="st4" width="14.6" height="15.1"/>
<rect x="623.1" y="302" class="st1" width="14.6" height="15.1"/>
<rect x="643" y="302" class="st1" width="14.6" height="15.1"/>
<rect x="662.9" y="302" class="st1" width="14.6" height="15.1"/>
<rect x="682.9" y="302" class="st1" width="14.6" height="15.1"/>
<rect x="702.8" y="302" class="st1" width="14.6" height="15.1"/>
<rect x="722.7" y="302" class="st1" width="14.6" height="15.1"/>
<rect x="742.6" y="302" class="st1" width="14.6" height="15.1"/>
<rect x="762.6" y="302" class="st1" width="14.6" height="15.1"/>
<rect x="782.5" y="302" class="st1" width="14.6" height="15.1"/>
<rect x="802.4" y="302" class="st1" width="14.6" height="15.1"/>
<rect x="822.3" y="302" class="st6" width="14.6" height="15.1"/>
<rect x="842.3" y="302" class="st4" width="14.6" height="15.1"/>
<rect x="344.1" y="321.1" class="st5" width="14.6" height="15.1"/>
<rect x="364.1" y="321.1" class="st5" width="14.6" height="15.1"/>
<rect x="384" y="321.1" class="st5" width="14.6" height="15.1"/>
<rect x="403.9" y="321.1" class="st5" width="14.6" height="15.1"/>
<rect x="423.8" y="321.1" class="st5" width="14.6" height="15.1"/>
<rect x="443.8" y="321.1" class="st1" width="14.6" height="15.1"/>
<rect x="463.7" y="321.1" class="st1" width="14.6" height="15.1"/>
<rect x="483.6" y="321.1" class="st1" width="14.6" height="15.1"/>
<rect x="503.5" y="321.1" class="st1" width="14.6" height="15.1"/>
<rect x="523.5" y="321.1" class="st1" width="14.6" height="15.1"/>
<rect x="543.4" y="321.1" class="st1" width="14.6" height="15.1"/>
<rect x="563.3" y="321.1" class="st4" width="14.6" height="15.1"/>
<rect x="583.2" y="321.1" class="st1" width="14.6" height="15.1"/>
<rect x="603.2" y="321.1" class="st1" width="14.6" height="15.1"/>
<rect x="623.1" y="321.1" class="st1" width="14.6" height="15.1"/>
<rect x="643" y="321.1" class="st4" width="14.6" height="15.1"/>
<rect x="662.9" y="321.1" class="st1" width="14.6" height="15.1"/>
<rect x="682.9" y="321.1" class="st1" width="14.6" height="15.1"/>
<rect x="702.8" y="321.1" class="st1" width="14.6" height="15.1"/>
<rect x="722.7" y="321.1" class="st1" width="14.6" height="15.1"/>
<rect x="742.6" y="321.1" class="st1" width="14.6" height="15.1"/>
<rect x="762.6" y="321.1" class="st1" width="14.6" height="15.1"/>
<rect x="782.5" y="321.1" class="st1" width="14.6" height="15.1"/>
<rect x="802.4" y="321.1" class="st1" width="14.6" height="15.1"/>
<rect x="822.3" y="321.1" class="st1" width="14.6" height="15.1"/>
<rect x="842.3" y="321.1" class="st4" width="14.6" height="15.1"/>
<path class="st7" d="M742.2,322.3v2.4l-3.4-0.3l-6.3-6.8C732.6,317.6,742.3,319.9,742.2,322.3z"/>
<path class="st7" d="M751.4,346.5l-2.4-4v-16.2C753.7,335.2,751.4,346.5,751.4,346.5z"/>
<rect x="334.6" y="369" class="st8" width="182.8" height="137.7"/>
<title>in sync</title>
<g class="st9">
	<path class="st4" d="M23.7,347.6c-2.1,3.2-3.9,7.8-1.1,13.1c5.5,10.5,19.1,8.3,25.7,18.4c1.8,2.8,2.8,6,2.8,9.3
		c0.3,5.7-1.5,10.2-2.4,15.2c-1.2,5.9-0.3,12,2.6,17.3c3.2,5.5,8.1,9.9,14,12.5c5.1,2.3,10,2.8,14.9,3.9c6.1,1.4,12,3.4,17.7,6
		c2.7,1.1,5.2,2.6,7.5,4.4c2.8,2.5,5.4,5.2,7.6,8.2l21.3,26.3c2.7,3.5,5.7,6.8,9,9.8c3.6,2.9,7.5,5.3,11.7,7.2
		c8.5,4.2,17.4,8.6,24.7,8.1s12.5-7.6,9-17.5c-3.3-9.5-12.6-17.4-16.8-26.9c-6.6-14.9,2.1-26-3.5-40.9c-5.3-14.3-20.3-23.9-29.9-37
		c-6.9-9.3-10.7-20.1-16.9-29.9c-9-14-22.4-24.7-35-30.1c-11.1-4.7-23.2-6.4-35.2-4.9c-4.6,0.5-9.1,1.4-12.3,4.1
		c-3.4,2.9-3,8.3-5.2,12.2C31.5,340.8,26.6,343.3,23.7,347.6z"/>
	<path class="st10" d="M37,327.5c0,0,106.5,99.6,149.4,177.1"/>
	<path class="st10" d="M23,361.3c0,0,42.5-8.3,72,24.9"/>
	<path class="st10" d="M53.2,423.8c0,0,47-32.9,63.3-13.8"/>
	<path class="st10" d="M86.5,324.8c0,0-4.9,25.2,12.9,66.3"/>
	<path class="st10" d="M168.4,422.4c0,0-4.2,16.5-37.6,4.4"/>
	<path class="st10" d="M134.5,480.2c0,0,20.4-23.6,11.1-35.2"/>
</g>
<path class="st4" d="M3.7,232.2c-5,5.9-9.7,14.1-6,22.2c7.1,15.8,33.3,8.1,42.6,22.8c2.8,4.4,3.2,9.8,2.5,14.6
	c-1.3,9.4-5.9,17.4-9.1,26s-4.9,19-0.3,28.1c4.4,8.8,13.6,14.3,22.5,16.5s17.9,1.7,26.8,2c10.6,0.4,21.1,2,31.4,4.6
	c4.5,1,8.8,2.8,12.8,5.1c4.5,2.9,8.2,7.2,11.8,11.4l32,37.3c4.3,5,8.6,10,13.9,13.7c6.1,4.2,13,6.4,19.8,8.5c14.6,4.5,30,9,44,5.9
	s25.8-16.5,22.3-31.9c-3.3-14.8-18.4-25.2-23.4-39.7c-8-22.8,11.8-43.9,5.8-67.1c-5.7-22.2-30.9-33.7-44.9-52.5
	c-10-13.5-13.9-30.3-22.7-44.7c-12.6-20.7-34.6-34.4-56.5-39.6s-43.9-2.8-64.5,2.4c-8.7,2.2-17.4,5-24.3,10.5
	c-7.3,5.9-8.2,14.8-13.5,21.9C20.4,218.5,10.4,224.2,3.7,232.2z"/>
<path class="st10" d="M34.8,194.6c0,0,169.7,133.5,226.8,249.6"/>
<path class="st10" d="M-1.8,255.2c0,0,82.4-26.6,127.5,19.7"/>
<path class="st10" d="M36,350.2c0,0,98.1-69,122.9-42.1"/>
<path class="st10" d="M128.6,175c0,0-16.9,43.4,4,106.5"/>
<path class="st10" d="M252.6,312.8c0,0-12.8,28.7-71.9,18.7"/>
<ellipse class="st11" cx="606.9" cy="650.6" rx="465" ry="124.5"/>
<path class="st4" d="M976.5-1.3c0,0-35.8,35.8-15.6,89c20.2,53.2-34.7,141.6-34.7,141.6s0.6-0.1,1.7-0.3
	c73.6-13,110.2-97.2,69.2-159.7C981.9,46.1,969.4,18.8,976.5-1.3z"/>
<path class="st10" d="M976.5-1.3c0,0-20.2,43.9,0,79.8s3.5,136.4-50.3,150.8"/>
<path class="st4" d="M1040.3,143.6c0,0-40.9-6.5-44.6,30.1s-78.6,41.7-78.6,41.7l1.4,0.9c61.8,40.6,121,25.9,112-28
	C1027.2,168.3,1027.5,148.2,1040.3,143.6z"/>
<path class="st12" d="M1040.3,143.6c0,0-40.9-6.5-44.6,30.1s-78.6,41.7-78.6,41.7l1.4,0.9c61.8,40.6,121,25.9,112-28
	C1027.2,168.3,1027.5,148.2,1040.3,143.6z"/>
<path class="st10" d="M1040.3,143.6c0,0-31.7,7-29.1,35.8s-47.1,63.5-94.1,36"/>
<path class="st10" d="M243,278.1c0,0-13.3-45,2.5-78.1c6.7-13.9,8.7-29.5,5.8-44.6c-1.5-7.2-3.6-14.2-6.3-20.9"/>
<path class="st4" d="M254.7,113.5c0,5.5-10,21.5-10,21.5s-10-16-10-21.5c0-5.5,4.5-10,10-10S254.7,107.9,254.7,113.5z"/>
<path class="st4" d="M271.3,144c-3,4.6-20.1,12.6-20.1,12.6s0.3-18.9,3.3-23.5c2.8-4.8,8.9-6.4,13.7-3.6s6.4,8.9,3.6,13.7
	C271.6,143.5,271.4,143.8,271.3,144z"/>
<path class="st4" d="M270.5,196.2c-4.9,2.5-23.7,0.8-23.7,0.8s9.8-16.1,14.7-18.6c4.8-2.7,10.9-1,13.6,3.8c2.7,4.8,1,10.9-3.8,13.6
	C271.1,196,270.8,196.1,270.5,196.2L270.5,196.2z"/>
<path class="st4" d="M261.1,235.6c-4.4,3.3-23.2,4.8-23.2,4.8s6.9-17.5,11.4-20.8c4.3-3.5,10.6-2.9,14.1,1.4
	c3.5,4.3,2.9,10.6-1.4,14.1C261.6,235.2,261.4,235.4,261.1,235.6z"/>
<path class="st4" d="M230.2,157.7c4,3.8,22.4,7.8,22.4,7.8s-4.5-18.3-8.5-22.1c-3.8-4-10.1-4.2-14.1-0.5c-4,3.8-4.2,10.1-0.5,14.1
	C229.7,157.3,230,157.5,230.2,157.7L230.2,157.7z"/>
<path class="st4" d="M219.7,203.9c4.9,2.5,23.7,0.8,23.7,0.8s-9.8-16.1-14.7-18.6c-5-2.3-11,0-13.2,5
	C213.4,195.8,215.2,201.4,219.7,203.9L219.7,203.9z"/>
<path class="st4" d="M215.7,250.2c4.4,3.3,23.2,4.8,23.2,4.8s-6.9-17.5-11.4-20.8c-4.6-3.1-10.8-1.8-13.9,2.8
	C210.9,241.2,211.8,247,215.7,250.2z"/>
<path class="st2" d="M718.7,546.3l-23,23.6h-162l-20.8-23.6H183.3c-4.1,0-7.4,3.3-7.4,7.4v5.9c0,22.7,18.4,41.2,41.2,41.2
	c0,0,0,0,0.1,0h795.2c22.7,0,41.2-18.4,41.2-41.2c0,0,0,0,0,0v-5.9c0-4.1-3.3-7.4-7.4-7.4H718.7z"/>
<rect x="356.2" y="375.6" class="st1" width="60.9" height="34.4"/>
<rect x="431.7" y="375.6" class="st13" width="71.5" height="8"/>
<rect x="431.7" y="388.8" class="st13" width="50.3" height="8"/>
<rect x="431.7" y="402.1" class="st13" width="71.5" height="8"/>
<rect x="356.2" y="428.6" class="st13" width="147" height="8"/>
<rect x="356.2" y="441.8" class="st13" width="147" height="8"/>
<rect x="356.2" y="455" class="st13" width="135.1" height="8"/>
<rect x="356.2" y="481.5" class="st13" width="147" height="8"/>
<rect x="539.6" y="366.7" class="st8" width="182.8" height="137.7"/>
<rect x="557.5" y="375.6" class="st1" width="60.9" height="34.4"/>
<rect x="633" y="375.6" class="st13" width="71.5" height="8"/>
<rect x="633" y="388.8" class="st13" width="50.3" height="8"/>
<rect x="633" y="402.1" class="st13" width="71.5" height="8"/>
<rect x="557.5" y="415.3" class="st13" width="147" height="8"/>
<rect x="557.5" y="441.8" class="st13" width="147" height="8"/>
<rect x="557.5" y="455" class="st13" width="135.1" height="8"/>
<rect x="557.5" y="468.3" class="st13" width="147" height="8"/>
<rect x="557.5" y="481.5" class="st13" width="147" height="8"/>
<rect x="740.9" y="363.7" class="st14" width="182.8" height="137.7"/>
<circle class="st8" cx="296.1" cy="203.5" r="4"/>
<rect x="359.5" y="431.6" class="st13" width="67.1" height="3.6"/>
<path class="st4" d="M289.7,621.3c1.8-1.5,3.2-3.5,3.8-5.8c0.5-2.3-0.5-5-2.7-5.9c-2.5-0.9-5.1,0.8-7.1,2.5c-2,1.7-4.3,3.7-6.9,3.3
	c2.7-2.5,4-6.2,3.2-9.8c-0.1-0.7-0.4-1.4-0.9-2c-1.4-1.5-3.8-0.8-5.5,0.3c-5.2,3.7-6.6,10.7-6.7,17.1c-0.5-2.3-0.1-4.7-0.1-7
	s-0.7-5-2.6-6.2c-1.2-0.7-2.6-1-4-1c-2.3-0.1-4.9,0.2-6.5,1.9c-2,2.1-1.5,5.7,0.3,8c1.7,2.3,4.3,3.8,6.8,5.4
	c1.9,1.2,3.6,2.7,4.8,4.6c0.1,0.3,0.3,0.5,0.4,0.8h14.6C284,625.9,287,623.8,289.7,621.3z"/>
<path class="st4" d="M955.2,621.3c1.8-1.5,3.2-3.5,3.8-5.8c0.5-2.3-0.5-5-2.7-5.9c-2.5-0.9-5.1,0.8-7.1,2.5s-4.3,3.7-6.9,3.3
	c2.7-2.5,4-6.2,3.2-9.8c-0.1-0.7-0.4-1.4-0.9-2c-1.4-1.5-3.8-0.8-5.5,0.3c-5.2,3.7-6.7,10.7-6.7,17.1c-0.5-2.3-0.1-4.7-0.1-7
	s-0.7-5-2.6-6.2c-1.2-0.7-2.6-1-4-1c-2.3-0.1-4.9,0.2-6.5,1.9c-2,2.1-1.5,5.7,0.3,8s4.3,3.8,6.8,5.4c1.9,1.2,3.6,2.7,4.8,4.6
	c0.1,0.3,0.3,0.5,0.4,0.8h14.7C949.4,625.9,952.5,623.8,955.2,621.3z"/>
<rect x="737.9" y="361.7" class="st8" width="182.8" height="137.7"/>
<rect x="755.9" y="372.7" class="st1" width="60.9" height="34.4"/>
<rect x="831.4" y="372.7" class="st13" width="71.5" height="8"/>
<rect x="835" y="400.9" class="st13" width="71.5" height="8"/>
<rect x="759.6" y="414.2" class="st13" width="147" height="8"/>
<rect x="759.6" y="440.7" class="st13" width="147" height="8"/>
<rect x="759.6" y="453.9" class="st13" width="135.1" height="8"/>
<rect x="759.6" y="467.2" class="st13" width="147" height="8"/>
<rect x="759.6" y="480.4" class="st13" width="147" height="8"/>
<path class="st8" d="M402.5,239.6h362c5.1,0,9.2,4.1,9.2,9.2v22c0,5.1-4.1,9.2-9.2,9.2h-362c-5.1,0-9.2-4.1-9.2-9.2v-22
	C393.3,243.8,397.4,239.6,402.5,239.6z"/>
<path class="st16" d="M802.4,240.4h41c2.5,0,4.6,2.1,4.6,4.6v31.2c0,2.5-2.1,4.6-4.6,4.6h-41c-2.5,0-4.6-2.1-4.6-4.6V245
	C797.8,242.4,799.8,240.4,802.4,240.4z"/>
<path class="st8" d="M827.2,263.3h-0.9l-0.4-0.3c1.2-1.4,1.8-3.2,1.8-5c0-4.2-3.4-7.5-7.6-7.5s-7.5,3.4-7.5,7.6s3.4,7.5,7.6,7.5
	c1.8,0,3.6-0.6,4.9-1.8l0.3,0.3v0.9l5.8,5.8l1.8-1.8L827.2,263.3z M820.2,263.3c-2.9,0-5.3-2.3-5.3-5.2c0-2.9,2.3-5.3,5.2-5.3
	s5.3,2.3,5.3,5.2c0,0,0,0,0,0C825.4,260.9,823.1,263.2,820.2,263.3C820.2,263.3,820.2,263.3,820.2,263.3L820.2,263.3z"/>
<path class="st17" d="M972.4,447.1c-6.6-12-19.6-12.5-19.6-12.5s-12.7-1.7-20.9,16.5c-7.6,17-18.1,33.3-1.7,37.3l3-9.9l1.8,10.6
	c2.3,0.2,4.7,0.2,7,0.1c17.6-0.6,34.3,0.2,33.7-6.6C975,473.7,978.7,458.6,972.4,447.1z"/>
<path class="st18" d="M909.9,510.9l-5.8,15.7l-28.8,28.6c0,0-17.3,13.6-9.6,17.7c7.7,4.1,14.7-15,14.7-15l30.7-19.8l6.4-22.5
	L909.9,510.9z"/>
<polygon class="st18" points="919.5,684.7 925.3,700.4 933.6,700.4 926.6,682 "/>
<polygon class="st18" points="944.5,691.5 950.2,707.2 958.6,707.2 951.5,688.8 "/>
<path class="st17" d="M943.8,694.2l10.9-2.7l-14.1-60.7l4.7-46.7l0.1,0c0,0,8-33.1,1.6-41.9s-38.4-5.5-38.4-5.5
	s-12.2,12.9-11.5,42.3c0.6,29.3,0,54.5,4.5,66.1c4.5,11.6,17.3,42.3,17.3,42.3l10.2-1.4l-10.9-50.4l-1.7-43.8
	c1.4,17.6,4.2,50.9,5.6,53.4C924,648.6,943.8,694.2,943.8,694.2z"/>
<path class="st18" d="M976.5,525.2l4.5,17l19.9,38.2c0,0,17.3,16.4,10.2,18.4c-7,2-17.9-15-17.9-15l-22.4-33.4l-5.8-24.5
	L976.5,525.2z"/>
<ellipse class="st18" cx="953.5" cy="459.8" rx="16" ry="17"/>
<path class="st18" d="M945.1,468.7l-3.8,12.9l-6.4,15l23.7-10.2c0,0-1.3-10.9,0-13.6L945.1,468.7z"/>
<path class="st16" d="M972.7,495.9L957.9,483l-16.7,7.5l0.7-11.1l-17.8,6l-2.7,0.9l-3.8,21.1c0,0-2.6,2-5.1,13.6
	c-1.5,6.8-3.6,13.4-6.4,19.8c0,0,27.5-11.6,41,4.1c0,0,1.9-1.4,1.3-3.4c-0.6-2,5.8-12.3,5.8-12.3s0,2,2.6-2c2.6-4.1,4.5-4.8,4.5-4.8
	L972.7,495.9z"/>
<path class="st16" d="M925.3,488.4l-2.8-2.4c0,0-2.3-1-4.2,2.4c-1.9,3.4-11.5,24.5-11.5,24.5l11.5,6.1L925.3,488.4z"/>
<path class="st16" d="M963.7,495.2l9,0.7c0,0,5.1,2.7,5.1,6.8s1.3,25.9,1.3,25.9l-14.1,4.8l-5.8-19.1L963.7,495.2z"/>
<path class="st17" d="M923.4,698l-10.9,4.8c0,0-12.8,0.7-10.9,7.5c1.9,6.8,21.1,2,21.1,2s17.3,0.7,17.3-4.1s-2.6-10.2-5.1-10.2
	H923.4z"/>
<path class="st17" d="M947.8,704.1l-10.9,4.8c0,0-12.8,0.7-10.9,7.5c1.9,6.8,21.1,2,21.1,2s17.3,0.7,17.3-4.1
	c0-4.8-2.6-10.2-5.1-10.2H947.8z"/>
<polygon class="st17" points="969.5,446 956.6,438.7 938.8,441.7 935.1,459.1 944.3,458.7 946.8,452.3 946.8,458.6 951.1,458.5 
	953.5,448.3 955.1,459.1 970.1,458.8 "/>
<path class="st19" d="M883.3,363.2c-36.5-32.8-91.1-27.9-121.9,11c-30.8,38.8-26.2,96.9,10.3,129.7c34.1,30.7,84.6,28.6,116.4-4.8
	l106.1,95.2c3.4,3,8.4,2.6,11.2-1s2.4-8.9-0.9-12c0,0,0,0,0,0l-106.1-95.2C924,447.1,917.5,393.8,883.3,363.2z M876.5,477
	c-23.1,29.1-64,32.8-91.3,8.2c-27.3-24.6-30.8-68.1-7.7-97.2c23.1-29.1,64-32.8,91.3-8.2c0,0,0,0,0,0
	C896.1,404.4,899.6,447.9,876.5,477z"/>
<path class="st20" d="M785.2,485.2c-25.8-23.1-30.6-63.5-11-92.7c-1.2,1.3-2.4,2.7-3.6,4.2c-23.1,29.1-19.6,72.6,7.7,97.2
	s68.2,20.9,91.3-8.2c1.2-1.5,2.2-2.9,3.3-4.5C849.1,506.6,811,508.3,785.2,485.2z"/>
</svg>
